<svg xmlns="http://www.w3.org/2000/svg" width="500" height="500" version="1.0" viewBox="0 0 375 375"><path fill="#1c486f" d="M152.797 103.863a7.331 7.331 0 0 0 7.328-7.328V82.352c0-18.348 14.945-33.297 33.352-33.297 18.406 0 33.351 14.949 33.351 33.297v14.183a7.329 7.329 0 0 0 14.656 0V84.344c0-25.617-19.226-48.125-44.843-49.824-27.84-1.817-51.172 20.34-51.172 47.832v14.183a7.331 7.331 0 0 0 7.328 7.328Zm0 0"/><path fill="#38b6ff" d="m306.898 294.367-16.117-156.8c-1.289-12.485-11.781-21.922-24.328-21.922H120.5c-12.543 0-23.035 9.496-24.328 21.921l-4.043 39.04c-2.695 26.203 22.215 46.66 47.363 38.98l13.656-4.16c15.536-4.75 32.883 3.105 38.98 20.34 2.11 5.976 1.817 12.543-.058 18.636l-6.039 19.696c-8.324 27.199 12.02 54.691 40.446 54.691h52.992c16.351-.059 29.133-14.187 27.43-30.422Zm0 0"/><path fill="#1c486f" d="M158.309 228.188 79.352 252.28c-11.489 3.516-12.309 19.461-1.23 24.149l18.812 7.914c9.964 4.219 17.937 12.133 22.16 22.156l7.91 18.816c4.691 11.079 20.637 10.258 24.152-1.23l24.09-78.957c3.227-10.375-6.504-20.106-16.937-16.941Zm0 0"/></svg>