<svg xmlns="http://www.w3.org/2000/svg" xmlns:xlink="http://www.w3.org/1999/xlink" width="500" zoomAndPan="magnify" viewBox="0 0 375 374.999991" height="500" preserveAspectRatio="xMidYMid meet" version="1.0"><path fill="#1c486f" d="M 152.796875 103.863281 C 156.839844 103.863281 160.125 100.582031 160.125 96.535156 L 160.125 82.351562 C 160.125 64.003906 175.070312 49.054688 193.476562 49.054688 C 211.882812 49.054688 226.828125 64.003906 226.828125 82.351562 L 226.828125 96.535156 C 226.828125 100.582031 230.113281 103.863281 234.15625 103.863281 C 238.203125 103.863281 241.484375 100.582031 241.484375 96.535156 L 241.484375 84.34375 C 241.484375 58.726562 222.257812 36.21875 196.640625 34.519531 C 168.800781 32.703125 145.46875 54.859375 145.46875 82.351562 L 145.46875 96.535156 C 145.46875 100.582031 148.753906 103.863281 152.796875 103.863281 Z M 152.796875 103.863281 " fill-opacity="1" fill-rule="nonzero"/><path fill="#38b6ff" d="M 306.898438 294.367188 L 290.78125 137.566406 C 289.492188 125.082031 279 115.644531 266.453125 115.644531 L 120.5 115.644531 C 107.957031 115.644531 97.464844 125.140625 96.171875 137.566406 L 92.128906 176.605469 C 89.433594 202.808594 114.34375 223.265625 139.492188 215.585938 L 153.148438 211.425781 C 168.683594 206.675781 186.03125 214.53125 192.128906 231.765625 C 194.238281 237.742188 193.945312 244.308594 192.070312 250.402344 L 186.03125 270.097656 C 177.707031 297.296875 198.050781 324.789062 226.476562 324.789062 L 279.46875 324.789062 C 295.820312 324.730469 308.601562 310.601562 306.898438 294.367188 Z M 306.898438 294.367188 " fill-opacity="1" fill-rule="nonzero"/><path fill="#1c486f" d="M 158.308594 228.1875 L 79.351562 252.28125 C 67.863281 255.796875 67.042969 271.742188 78.121094 276.429688 L 96.933594 284.34375 C 106.898438 288.5625 114.871094 296.476562 119.09375 306.5 L 127.003906 325.316406 C 131.695312 336.394531 147.640625 335.574219 151.15625 324.085938 L 175.246094 245.128906 C 178.472656 234.753906 168.742188 225.023438 158.308594 228.1875 Z M 158.308594 228.1875 " fill-opacity="1" fill-rule="nonzero"/></svg>