<svg xmlns="http://www.w3.org/2000/svg" xmlns:xlink="http://www.w3.org/1999/xlink" width="500" zoomAndPan="magnify" viewBox="0 0 375 374.999991" height="500" preserveAspectRatio="xMidYMid meet" version="1.0"><defs><g/></defs><path fill="#1c486f" d="M 160.140625 92.3125 C 162.742188 92.3125 164.851562 90.203125 164.851562 87.601562 L 164.851562 78.480469 C 164.851562 66.6875 174.460938 57.074219 186.296875 57.074219 C 198.128906 57.074219 207.742188 66.6875 207.742188 78.480469 L 207.742188 87.601562 C 207.742188 90.203125 209.851562 92.3125 212.453125 92.3125 C 215.050781 92.3125 217.164062 90.203125 217.164062 87.601562 L 217.164062 79.761719 C 217.164062 63.292969 204.800781 48.820312 188.332031 47.730469 C 170.429688 46.5625 155.429688 60.804688 155.429688 78.480469 L 155.429688 87.601562 C 155.429688 90.203125 157.542969 92.3125 160.140625 92.3125 Z M 160.140625 92.3125 " fill-opacity="1" fill-rule="nonzero"/><path fill="#38b6ff" d="M 259.222656 214.796875 L 248.859375 113.984375 C 248.027344 105.957031 241.28125 99.890625 233.21875 99.890625 L 139.375 99.890625 C 131.308594 99.890625 124.5625 105.996094 123.734375 113.984375 L 121.132812 139.085938 C 119.402344 155.929688 135.417969 169.082031 151.585938 164.144531 L 160.367188 161.46875 C 170.355469 158.417969 181.511719 163.46875 185.429688 174.546875 C 186.785156 178.390625 186.597656 182.613281 185.390625 186.53125 L 181.511719 199.195312 C 176.160156 216.683594 189.238281 234.359375 207.515625 234.359375 L 241.585938 234.359375 C 252.097656 234.320312 260.316406 225.238281 259.222656 214.796875 Z M 259.222656 214.796875 " fill-opacity="1" fill-rule="nonzero"/><path fill="#1c486f" d="M 163.683594 172.25 L 112.917969 187.738281 C 105.53125 190 105.003906 200.25 112.128906 203.265625 L 124.226562 208.355469 C 130.632812 211.066406 135.757812 216.15625 138.472656 222.601562 L 143.558594 234.699219 C 146.574219 241.820312 156.824219 241.292969 159.085938 233.90625 L 174.574219 183.140625 C 176.648438 176.46875 170.390625 170.214844 163.683594 172.25 Z M 163.683594 172.25 " fill-opacity="1" fill-rule="nonzero"/><g fill="#ef8121" fill-opacity="0.4"><g transform="translate(54.511849, 313.991698)"><g><path d="M 2.765625 0 L 2.765625 -62.6875 L 21.890625 -62.6875 L 27.140625 -24.4375 L 32.390625 -62.6875 L 51.65625 -62.6875 L 51.65625 0 L 40.203125 0 L 40.203125 -45.171875 L 32.984375 0 L 21.75 0 L 14.078125 -45.171875 L 14.078125 0 Z M 2.765625 0 "/></g></g></g><g fill="#ef8121" fill-opacity="0.4"><g transform="translate(108.933358, 313.991698)"><g><path d="M 2.484375 -56.984375 L 2.484375 -65.890625 L 15.25 -65.890625 L 15.25 -56.984375 Z M 2.484375 0 L 2.484375 -53.40625 L 15.25 -53.40625 L 15.25 0 Z M 2.484375 0 "/></g></g></g><g fill="#ef8121" fill-opacity="0.4"><g transform="translate(126.660467, 313.991698)"><g><path d="M 2.546875 -53.40625 L 15.328125 -53.40625 L 15.328125 -46.625 C 15.859375 -48.8125 16.78125 -50.585938 18.09375 -51.953125 C 19.40625 -53.316406 21.15625 -54 23.34375 -54 C 26.945312 -54 29.613281 -52.890625 31.34375 -50.671875 C 33.070312 -48.460938 33.9375 -45.316406 33.9375 -41.234375 L 33.9375 0 L 21.375 0 L 21.375 -39.90625 C 21.375 -41.082031 21.144531 -42.082031 20.6875 -42.90625 C 20.226562 -43.726562 19.507812 -44.140625 18.53125 -44.140625 C 17.21875 -44.140625 16.351562 -43.546875 15.9375 -42.359375 C 15.53125 -41.171875 15.328125 -39.578125 15.328125 -37.578125 L 15.328125 0 L 2.546875 0 Z M 2.546875 -53.40625 "/></g></g></g><g fill="#ef8121" fill-opacity="0.4"><g transform="translate(163.063053, 313.991698)"><g><path d="M 2.484375 -56.984375 L 2.484375 -65.890625 L 15.25 -65.890625 L 15.25 -56.984375 Z M 2.484375 0 L 2.484375 -53.40625 L 15.25 -53.40625 L 15.25 0 Z M 2.484375 0 "/></g></g></g><g fill="#38b6ff" fill-opacity="1"><g transform="translate(54.511849, 313.991698)"><g><path d="M 2.765625 0 L 2.765625 -62.6875 L 21.890625 -62.6875 L 27.140625 -24.4375 L 32.390625 -62.6875 L 51.65625 -62.6875 L 51.65625 0 L 40.203125 0 L 40.203125 -45.171875 L 32.984375 0 L 21.75 0 L 14.078125 -45.171875 L 14.078125 0 Z M 2.765625 0 "/></g></g></g><g fill="#38b6ff" fill-opacity="1"><g transform="translate(108.933358, 313.991698)"><g><path d="M 2.484375 -56.984375 L 2.484375 -65.890625 L 15.25 -65.890625 L 15.25 -56.984375 Z M 2.484375 0 L 2.484375 -53.40625 L 15.25 -53.40625 L 15.25 0 Z M 2.484375 0 "/></g></g></g><g fill="#38b6ff" fill-opacity="1"><g transform="translate(126.660467, 313.991698)"><g><path d="M 2.546875 -53.40625 L 15.328125 -53.40625 L 15.328125 -46.625 C 15.859375 -48.8125 16.78125 -50.585938 18.09375 -51.953125 C 19.40625 -53.316406 21.15625 -54 23.34375 -54 C 26.945312 -54 29.613281 -52.890625 31.34375 -50.671875 C 33.070312 -48.460938 33.9375 -45.316406 33.9375 -41.234375 L 33.9375 0 L 21.375 0 L 21.375 -39.90625 C 21.375 -41.082031 21.144531 -42.082031 20.6875 -42.90625 C 20.226562 -43.726562 19.507812 -44.140625 18.53125 -44.140625 C 17.21875 -44.140625 16.351562 -43.546875 15.9375 -42.359375 C 15.53125 -41.171875 15.328125 -39.578125 15.328125 -37.578125 L 15.328125 0 L 2.546875 0 Z M 2.546875 -53.40625 "/></g></g></g><g fill="#38b6ff" fill-opacity="1"><g transform="translate(163.063053, 313.991698)"><g><path d="M 2.484375 -56.984375 L 2.484375 -65.890625 L 15.25 -65.890625 L 15.25 -56.984375 Z M 2.484375 0 L 2.484375 -53.40625 L 15.25 -53.40625 L 15.25 0 Z M 2.484375 0 "/></g></g></g><g fill="#1c486f" fill-opacity="1"><g transform="translate(192.936803, 313.991698)"><g><path d="M 2.765625 0 L 2.765625 -62.6875 L 21.890625 -62.6875 L 27.140625 -24.4375 L 32.390625 -62.6875 L 51.65625 -62.6875 L 51.65625 0 L 40.203125 0 L 40.203125 -45.171875 L 32.984375 0 L 21.75 0 L 14.078125 -45.171875 L 14.078125 0 Z M 2.765625 0 "/></g></g></g><g fill="#1c486f" fill-opacity="1"><g transform="translate(247.358313, 313.991698)"><g><path d="M 12.265625 0.578125 C 8.128906 0.578125 5.289062 -0.789062 3.75 -3.53125 C 2.21875 -6.28125 1.453125 -10.210938 1.453125 -15.328125 C 1.453125 -19.503906 2 -22.710938 3.09375 -24.953125 C 4.195312 -27.191406 5.71875 -28.832031 7.65625 -29.875 C 9.601562 -30.925781 12.570312 -32.082031 16.5625 -33.34375 L 20.0625 -34.515625 L 20.0625 -39.984375 C 20.0625 -41.398438 19.78125 -42.484375 19.21875 -43.234375 C 18.664062 -43.984375 18 -44.359375 17.21875 -44.359375 C 16.539062 -44.359375 15.945312 -44.039062 15.4375 -43.40625 C 14.925781 -42.78125 14.671875 -41.929688 14.671875 -40.859375 L 14.671875 -37.65625 L 2.265625 -37.65625 L 2.265625 -39.40625 C 2.265625 -44.65625 3.488281 -48.398438 5.9375 -50.640625 C 8.394531 -52.878906 12.398438 -54 17.953125 -54 C 22.378906 -54 25.976562 -52.84375 28.75 -50.53125 C 31.519531 -48.21875 32.90625 -44.945312 32.90625 -40.71875 L 32.90625 0 L 20.21875 0 L 20.21875 -6.34375 C 19.582031 -4.15625 18.570312 -2.453125 17.1875 -1.234375 C 15.800781 -0.0234375 14.160156 0.578125 12.265625 0.578125 Z M 17.296875 -9.34375 C 18.265625 -9.34375 18.957031 -9.742188 19.375 -10.546875 C 19.789062 -11.347656 20 -12.332031 20 -13.5 L 20 -28.390625 C 18.09375 -27.660156 16.691406 -26.734375 15.796875 -25.609375 C 14.898438 -24.492188 14.453125 -22.9375 14.453125 -20.9375 L 14.453125 -14.078125 C 14.453125 -10.921875 15.398438 -9.34375 17.296875 -9.34375 Z M 17.296875 -9.34375 "/></g></g></g><g fill="#1c486f" fill-opacity="1"><g transform="translate(282.593685, 313.991698)"><g><path d="M 2.546875 -53.40625 L 15.328125 -53.40625 L 15.328125 -47.5 C 15.953125 -49.59375 17.054688 -51.207031 18.640625 -52.34375 C 20.222656 -53.488281 22.179688 -54.0625 24.515625 -54.0625 L 24.515625 -43.421875 C 22.710938 -43.421875 20.726562 -43.164062 18.5625 -42.65625 C 16.40625 -42.144531 15.328125 -41.546875 15.328125 -40.859375 L 15.328125 0 L 2.546875 0 Z M 2.546875 -53.40625 "/></g></g></g><g fill="#1c486f" fill-opacity="1"><g transform="translate(307.688859, 313.991698)"><g><path d="M 13.578125 0.578125 C 10.210938 0.578125 7.898438 -0.125 6.640625 -1.53125 C 5.378906 -2.9375 4.75 -5.195312 4.75 -8.3125 L 4.75 -41.671875 L 1.171875 -41.671875 L 1.171875 -51.375 L 4.75 -51.375 L 4.75 -62.6875 L 17.140625 -62.6875 L 17.140625 -51.375 L 20.796875 -51.375 L 20.796875 -41.671875 L 17.140625 -41.671875 L 17.140625 -11.671875 C 17.140625 -10.742188 17.210938 -10.0625 17.359375 -9.625 C 17.503906 -9.1875 17.894531 -8.96875 18.53125 -8.96875 C 19.019531 -8.96875 19.484375 -8.992188 19.921875 -9.046875 C 20.359375 -9.097656 20.648438 -9.125 20.796875 -9.125 L 20.796875 -0.359375 C 20.066406 -0.171875 19.007812 0.03125 17.625 0.25 C 16.238281 0.46875 14.890625 0.578125 13.578125 0.578125 Z M 13.578125 0.578125 "/></g></g></g></svg>